<svg width="1920" height="1570" viewBox="0 0 1920 1570" fill="none" xmlns="http://www.w3.org/2000/svg">
<path d="M1994 430.459C1994 477.839 1994 525.201 1994 572.581C1991.93 572.826 1989.75 572.883 1987.78 573.373C1923.02 589.292 1858.47 605.721 1793.49 621.074C1736.94 634.447 1680.11 647.16 1623.03 659.231C1546.21 675.471 1469.18 691.258 1391.96 706.423C1324.16 719.72 1256.03 732.056 1187.96 744.485C1143.85 752.52 1099.56 759.971 1055.33 767.629C1029.01 772.193 1002.65 776.625 976.33 781.152C974.73 781.435 973.281 782.114 971.756 782.623C971.931 783.076 972.106 783.548 972.281 784C982.628 783.548 992.974 783.17 1003.3 782.623C1020.71 781.68 1038.11 780.605 1055.5 779.624C1071.67 778.719 1087.84 777.889 1103.99 776.965C1121.03 775.984 1138.05 774.89 1155.09 773.891C1170.89 772.966 1186.71 772.099 1202.5 771.193C1219.37 770.213 1236.24 769.194 1253.11 768.176C1268 767.289 1282.9 766.421 1297.79 765.478C1313.39 764.497 1328.98 763.441 1344.6 762.46C1359.5 761.517 1374.39 760.65 1389.29 759.688C1408.1 758.462 1426.92 757.179 1445.74 755.934C1459.74 755.01 1473.73 754.161 1487.7 753.237C1506.52 751.973 1525.34 750.672 1544.16 749.389C1557.43 748.484 1570.7 747.616 1583.97 746.673C1600.99 745.447 1617.98 744.108 1635 742.901C1651.84 741.694 1668.69 740.638 1685.53 739.412C1706.3 737.903 1727.07 736.281 1747.84 734.696C1763.06 733.527 1778.28 732.395 1793.49 731.169C1812.11 729.679 1830.71 728.095 1849.3 726.567C1867.54 725.077 1885.81 723.662 1904.06 722.153C1921.93 720.663 1939.82 719.154 1957.66 717.532C1969.78 716.438 1981.88 715.137 1994 713.93C1994 737.62 1994 761.31 1994 785C1300.99 785 608.008 785 -85 785C-84.8251 783.378 -84.5002 781.737 -84.5002 780.115C-84.4752 759.971 -84.4752 739.827 -84.4752 719.664C-84.4752 718.079 -84.2753 716.495 -84.1753 714.778C-82.7758 714.778 -81.9011 714.722 -81.0514 714.778C-69.9552 715.703 -58.8841 716.665 -47.788 717.589C-30.2691 719.06 -12.7252 720.493 4.79369 721.965C22.8374 723.474 40.9061 725.058 58.9498 726.548C77.7433 728.095 96.5117 729.604 115.305 731.075C131.225 732.32 147.169 733.527 163.088 734.734C178.833 735.922 194.602 737.092 210.347 738.261C227.366 739.525 244.36 740.845 261.379 742.071C278.398 743.297 295.442 744.429 312.461 745.636C330.03 746.881 347.574 748.182 365.143 749.408C382.887 750.634 400.631 751.766 418.374 752.954C437.543 754.237 456.736 755.519 475.929 756.764C490.099 757.688 504.269 758.518 518.44 759.424C538.333 760.706 558.226 762.046 578.144 763.309C593.039 764.252 607.933 765.082 622.803 766.006C638.948 767.006 655.092 768.081 671.236 769.043C686.656 769.967 702.101 770.778 717.545 771.665C734.764 772.665 751.983 773.759 769.227 774.758C784.847 775.664 800.466 776.475 816.086 777.38C833.305 778.38 850.549 779.455 867.768 780.454C885.886 781.511 904.005 782.548 922.149 783.472C926.997 783.717 931.895 783.51 936.769 783.51C936.869 783.095 936.944 782.661 937.044 782.246C934.644 781.699 932.295 781.02 929.871 780.605C888.96 773.626 847.95 766.95 807.114 759.688C734.214 746.711 661.29 733.734 588.59 720.135C528.286 708.856 468.057 697.331 408.203 684.77C314.336 665.059 220.543 645.066 127.251 623.847C57.9252 608.078 -10.551 590.141 -79.4269 573.298C-83.5005 572.298 -84.5751 570.751 -84.5751 567.733C-84.4752 523.484 -84.5002 479.254 -84.5002 435.005C-84.5002 433.835 -84.2753 432.685 -84.1253 431.176C-82.4509 431.666 -81.2513 431.93 -80.2017 432.364C-21.6221 455.865 36.7575 479.669 95.612 502.793C138.497 519.636 181.732 535.989 225.317 551.739C282.522 572.43 339.977 592.801 397.832 612.454C464.059 634.956 530.535 657.1 597.487 678.376C665.913 700.142 734.914 720.871 803.865 741.656C846.375 754.463 889.285 766.516 932.045 778.87C933.97 779.417 936.094 779.568 938.118 779.907C938.318 779.474 938.543 779.04 938.743 778.625C937.243 777.814 935.794 776.908 934.195 776.229C925.398 772.476 916.551 768.817 907.779 765.044C848.175 739.562 787.996 714.778 729.116 688.391C633.774 645.67 538.433 602.873 444.615 558.284C351.698 514.129 259.93 468.559 169.061 422.028C85.2156 379.099 3.26921 334.076 -79.6019 290.053C-83.3006 288.092 -84.6001 285.96 -84.6001 282.622C-84.4752 238.241 -84.5252 193.859 -84.5002 149.478C-84.5002 148.309 -84.3252 147.158 -84.2003 145.253C247.659 365.254 587.016 577.277 939.768 776.871C940.467 776.286 941.167 775.701 941.892 775.117C600.061 517.128 258.205 259.139 -84.6501 0.414957C-81.1763 0.414957 -79.402 0.414957 -77.6026 0.414957C-19.3229 0.414957 38.9818 0.452664 97.2614 0.339495C102.285 0.320633 105.634 1.54663 108.832 4.33814C157.191 46.3806 206.023 88.1024 253.982 130.409C317.635 186.56 381.037 242.899 443.791 299.616C503.42 353.523 562.424 407.844 621.079 462.354C665.738 503.887 709.598 545.892 753.408 587.934C791.094 624.073 828.331 660.495 865.518 696.916C890.285 721.172 914.601 745.674 939.168 770.043C940.542 771.42 942.292 772.57 943.866 773.834C944.541 773.438 945.216 773.042 945.89 772.646C751.458 504.755 534.684 247.52 295.117 0.565824C297.242 0.490378 298.441 0.414957 299.666 0.414957C359.045 0.414957 418.424 0.433802 477.779 0.339495C481.827 0.339495 483.902 1.49005 485.726 4.05523C511.067 39.7979 537.583 75.0879 561.749 111.264C605.559 176.846 649.019 242.579 690.63 308.953C724.918 363.632 757.231 419.067 788.82 474.671C822.633 534.16 855.022 594.102 887.211 654.101C907.379 691.654 926.022 729.66 945.416 767.44C946.19 768.949 947.415 770.307 948.44 771.74C949.239 771.514 950.064 771.288 950.864 771.061C874.89 510.979 787.771 253.16 672.786 0.414957C675.81 0.414957 677.934 0.414957 680.058 0.414957C736.713 0.414957 793.394 0.414957 850.049 0.414957C859.895 0.414957 859.87 0.414952 860.92 7.60121C861.17 9.22331 861.62 10.8265 861.87 12.4298C864.269 28.3489 866.693 44.2492 869.017 60.1684C871.366 76.2196 873.666 92.2708 875.965 108.341C877.939 122.242 879.888 136.143 881.813 150.063C883.862 164.775 885.911 179.487 887.861 194.199C889.835 209.062 891.659 223.925 893.584 238.788C895.283 252.028 897.057 265.269 898.732 278.51C900.331 291.204 901.831 303.917 903.405 316.629C905.08 330.153 906.829 343.658 908.454 357.182C910.103 370.837 911.627 384.512 913.202 398.187C914.876 412.522 916.576 426.856 918.2 441.191C919.425 451.886 920.549 462.58 921.749 473.256C923.448 488.402 925.198 503.566 926.847 518.712C928.072 529.935 929.196 541.176 930.396 552.418C931.72 564.867 933.12 577.315 934.419 589.764C935.644 601.552 936.769 613.322 937.968 625.11C939.293 637.823 940.692 650.555 941.992 663.267C942.891 672.076 943.591 680.884 944.491 689.693C945.766 702.273 947.19 714.854 948.465 727.453C949.714 739.789 950.814 752.124 952.088 764.441C952.313 766.591 953.063 768.723 953.563 770.854C954.038 770.854 954.512 770.854 955.012 770.873C955.362 769.948 955.912 769.024 956.012 768.081C957.212 757.255 958.386 746.428 959.486 735.602C960.885 722.059 962.235 708.535 963.584 694.993C964.784 682.94 965.859 670.887 967.083 658.835C968.757 642.18 970.532 625.525 972.256 608.871C973.081 600.741 973.831 592.631 974.705 584.501C976.005 572.317 977.429 560.151 978.754 547.985C979.979 536.612 981.103 525.238 982.353 513.865C984.002 498.7 985.752 483.554 987.426 468.39C988.626 457.695 989.75 447 991 436.325C992.649 422.122 994.399 407.938 996.073 393.735C997.647 380.212 999.122 366.688 1000.72 353.164C1002.37 339.376 1004.15 325.589 1005.84 311.801C1007.04 301.936 1008.14 292.053 1009.39 282.188C1011.04 269.211 1012.79 256.253 1014.49 243.295C1016.14 230.734 1017.79 218.172 1019.46 205.61C1021.39 191.294 1023.34 176.978 1025.29 162.662C1026.86 151.044 1028.34 139.425 1029.96 127.825C1031.96 113.66 1034.06 99.4948 1036.16 85.3298C1038.13 71.9758 1040.13 58.6218 1042.13 45.2678C1044.11 32.0458 1046.33 18.8427 1047.93 5.60189C1048.4 1.52779 1050.23 0.339513 1055.53 0.358375C1113.81 0.471544 1172.11 0.433808 1230.39 0.433808C1232.07 0.433808 1233.77 0.58471 1235.81 0.679018C1235.26 2.1125 1234.99 3.0367 1234.59 3.90433C1229.79 14.58 1224.94 25.2556 1220.17 35.9502C1181.33 122.77 1145.55 210.288 1113.26 298.617C1091.26 358.728 1069.4 418.897 1049.4 479.405C1023.31 558.359 999.072 637.653 974.181 716.815C968.858 733.734 964.134 750.747 959.236 767.742C958.886 768.986 959.186 770.363 959.186 771.665C959.786 771.703 960.385 771.74 960.985 771.759C961.86 770.326 962.835 768.911 963.609 767.44C985.402 724.964 1006.44 682.261 1029.16 640.049C1062.87 577.447 1096.59 514.808 1132.48 452.904C1171.56 385.512 1212.5 318.723 1253.88 252.123C1279.45 210.986 1306.76 170.471 1334.38 130.107C1363.15 88.0458 1393.26 46.5126 1422.62 4.67766C1424.87 1.47119 1427.45 0.320643 1432.3 0.320643C1490.78 0.452674 1549.23 0.396077 1607.71 0.396077C1609.46 0.396077 1611.21 0.396077 1613.71 0.396077C1612.63 1.67866 1612.03 2.47086 1611.33 3.20646C1596.11 19.069 1580.59 34.7807 1565.67 50.8319C1515.07 105.304 1463.96 159.531 1414.38 214.532C1371.69 261.874 1330.16 309.858 1289.27 358.106C1246.24 408.881 1203.65 459.883 1162.56 511.564C1112.93 573.958 1064.92 637.106 1016.54 700.066C999.097 722.776 982.628 745.919 965.759 768.873C964.784 770.213 964.284 771.759 963.584 773.212C964.159 773.438 964.734 773.664 965.309 773.891C966.683 772.759 968.208 771.684 969.432 770.458C1010.47 729.905 1051.15 689.127 1092.59 648.801C1140.57 602.137 1188.58 555.492 1237.71 509.527C1310.29 441.625 1383.69 374.233 1457.06 306.821C1489.35 277.152 1522.21 247.879 1555.13 218.606C1591.99 185.805 1629 153.099 1666.26 120.563C1710.95 81.5386 1755.98 42.7215 1800.79 3.77232C1803.64 1.30145 1806.69 0.320633 1811.06 0.339495C1869.72 0.433802 1928.37 0.414949 1987.03 0.377226C1989.35 0.377226 1991.68 0.132031 1993.97 0C1993.97 0.264062 1993.97 0.546972 1993.97 0.811034C1991.95 2.15021 1989.8 3.39508 1987.9 4.82856C1805.29 142.556 1622.7 280.283 1440.09 418.029C1343.25 491.08 1246.39 564.131 1149.57 637.201C1106.36 669.812 1063.2 702.462 1020.04 735.111C1003.75 747.447 987.426 759.763 971.157 772.118C969.807 773.136 968.858 774.456 967.708 775.626C968.083 775.928 968.483 776.211 968.857 776.512C970.482 775.814 972.206 775.249 973.681 774.419C1018.32 748.805 1063.15 723.398 1107.48 697.463C1171.19 660.193 1234.84 622.847 1297.89 584.954C1366.02 544.006 1433.7 502.623 1501.12 460.996C1556.4 426.875 1611.13 392.264 1665.89 357.653C1705.03 332.926 1743.91 307.972 1782.67 282.924C1826.91 254.33 1870.97 225.547 1914.98 196.745C1941.42 179.449 1967.63 161.964 1993.95 144.574C1993.95 192.218 1993.95 239.863 1993.95 287.507C1991.53 288.639 1989 289.657 1986.68 290.902C1931.32 320.685 1876.49 351.033 1820.56 380.174C1749.49 417.199 1677.84 453.621 1605.84 489.628C1489.03 548.042 1370.07 603.872 1249.43 657.665C1199.78 679.809 1149.84 701.632 1099.76 723.247C1058.45 741.071 1016.74 758.386 975.255 775.965C973.456 776.72 971.956 777.889 970.332 778.87C970.607 779.21 970.882 779.568 971.157 779.907C972.981 779.568 974.905 779.379 976.655 778.87C1021.76 765.837 1066.97 752.992 1111.91 739.657C1219.42 707.743 1326.46 674.905 1431.85 639.162C1510.27 612.567 1588.64 585.859 1666.11 557.756C1739.84 531.01 1812.56 502.661 1885.39 474.52C1921.98 460.392 1957.81 445.19 1994 430.459Z" fill="#F19D00"/>
<path d="M1994 1139.54C1994 1092.16 1994 1044.8 1994 997.419C1991.93 997.174 1989.75 997.117 1987.78 996.627C1923.02 980.708 1858.47 964.279 1793.49 948.926C1736.94 935.553 1680.11 922.84 1623.03 910.769C1546.21 894.529 1469.18 878.742 1391.96 863.577C1324.16 850.28 1256.03 837.944 1187.96 825.515C1143.85 817.48 1099.56 810.029 1055.33 802.372C1029.01 797.807 1002.65 793.375 976.33 788.848C974.73 788.565 973.281 787.886 971.756 787.377C971.931 786.924 972.106 786.452 972.281 786C982.628 786.452 992.974 786.83 1003.3 787.377C1020.71 788.32 1038.11 789.395 1055.5 790.376C1071.67 791.281 1087.84 792.111 1103.99 793.035C1121.03 794.016 1138.05 795.11 1155.09 796.11C1170.89 797.034 1186.71 797.901 1202.5 798.807C1219.37 799.787 1236.24 800.806 1253.11 801.824C1268 802.711 1282.9 803.579 1297.79 804.522C1313.39 805.503 1328.98 806.559 1344.6 807.54C1359.5 808.483 1374.39 809.35 1389.29 810.312C1408.1 811.538 1426.92 812.821 1445.74 814.066C1459.74 814.99 1473.73 815.839 1487.7 816.763C1506.52 818.027 1525.34 819.328 1544.16 820.611C1557.43 821.516 1570.7 822.384 1583.97 823.327C1600.99 824.553 1617.98 825.892 1635 827.099C1651.84 828.306 1668.69 829.362 1685.53 830.588C1706.3 832.097 1727.07 833.719 1747.84 835.304C1763.06 836.473 1778.28 837.605 1793.49 838.831C1812.11 840.321 1830.71 841.905 1849.3 843.433C1867.54 844.923 1885.81 846.338 1904.06 847.847C1921.93 849.337 1939.82 850.846 1957.66 852.468C1969.78 853.562 1981.88 854.863 1994 856.07C1994 832.38 1994 808.69 1994 785C1300.99 785 608.008 785 -85 785C-84.8251 786.622 -84.5002 788.263 -84.5002 789.885C-84.4752 810.029 -84.4752 830.174 -84.4752 850.337C-84.4752 851.921 -84.2753 853.505 -84.1753 855.222C-82.7758 855.222 -81.9011 855.278 -81.0514 855.222C-69.9552 854.297 -58.8841 853.335 -47.788 852.411C-30.2691 850.94 -12.7252 849.507 4.79369 848.035C22.8374 846.526 40.9061 844.942 58.9498 843.452C77.7433 841.905 96.5117 840.396 115.305 838.925C131.225 837.68 147.169 836.473 163.088 835.266C178.833 834.078 194.602 832.908 210.347 831.739C227.366 830.475 244.36 829.155 261.379 827.929C278.398 826.703 295.442 825.571 312.461 824.364C330.03 823.119 347.574 821.818 365.143 820.592C382.887 819.366 400.631 818.234 418.374 817.046C437.543 815.763 456.736 814.481 475.929 813.236C490.099 812.312 504.269 811.482 518.44 810.576C538.333 809.294 558.226 807.955 578.144 806.691C593.039 805.748 607.933 804.918 622.803 803.994C638.948 802.994 655.092 801.919 671.236 800.957C686.656 800.033 702.101 799.222 717.545 798.335C734.764 797.335 751.983 796.242 769.227 795.242C784.847 794.336 800.466 793.525 816.086 792.62C833.305 791.62 850.549 790.545 867.768 789.546C885.886 788.489 904.005 787.452 922.149 786.528C926.997 786.283 931.895 786.49 936.769 786.49C936.869 786.905 936.944 787.339 937.044 787.754C934.644 788.301 932.295 788.98 929.871 789.395C888.96 796.374 847.95 803.05 807.114 810.312C734.214 823.289 661.29 836.266 588.59 849.865C528.286 861.144 468.057 872.669 408.203 885.23C314.336 904.941 220.543 924.934 127.251 946.153C57.9252 961.922 -10.551 979.859 -79.4269 996.702C-83.5005 997.702 -84.5751 999.249 -84.5751 1002.27C-84.4752 1046.52 -84.5002 1090.75 -84.5002 1135C-84.5002 1136.16 -84.2753 1137.32 -84.1253 1138.82C-82.4509 1138.33 -81.2513 1138.07 -80.2017 1137.64C-21.6221 1114.13 36.7575 1090.33 95.612 1067.21C138.497 1050.36 181.732 1034.01 225.317 1018.26C282.522 997.57 339.977 977.199 397.832 957.546C464.059 935.044 530.535 912.9 597.487 891.625C665.913 869.858 734.914 849.129 803.865 828.344C846.375 815.537 889.285 803.484 932.045 791.13C933.97 790.583 936.094 790.432 938.118 790.093C938.318 790.526 938.543 790.96 938.743 791.375C937.243 792.186 935.794 793.092 934.195 793.771C925.398 797.524 916.551 801.183 907.779 804.956C848.175 830.438 787.996 855.222 729.116 881.609C633.774 924.331 538.433 967.127 444.615 1011.72C351.698 1055.87 259.93 1101.44 169.061 1147.97C85.2156 1190.9 3.26921 1235.92 -79.6019 1279.95C-83.3006 1281.91 -84.6001 1284.04 -84.6001 1287.38C-84.4752 1331.76 -84.5252 1376.14 -84.5002 1420.52C-84.5002 1421.69 -84.3252 1422.84 -84.2003 1424.75C247.659 1204.75 587.016 992.723 939.768 793.129C940.467 793.714 941.167 794.299 941.892 794.883C600.061 1052.87 258.205 1310.86 -84.6501 1569.59C-81.1763 1569.59 -79.402 1569.59 -77.6026 1569.59C-19.3229 1569.59 38.9818 1569.55 97.2614 1569.66C102.285 1569.68 105.634 1568.45 108.832 1565.66C157.191 1523.62 206.023 1481.9 253.982 1439.59C317.635 1383.44 381.037 1327.1 443.791 1270.38C503.42 1216.48 562.424 1162.16 621.079 1107.65C665.738 1066.11 709.598 1024.11 753.408 982.066C791.094 945.927 828.331 909.505 865.518 873.084C890.285 848.828 914.601 824.326 939.168 799.957C940.542 798.58 942.292 797.43 943.866 796.166C944.541 796.562 945.216 796.958 945.89 797.354C751.458 1065.25 534.684 1322.48 295.117 1569.43C297.242 1569.51 298.441 1569.59 299.666 1569.59C359.045 1569.59 418.424 1569.57 477.779 1569.66C481.827 1569.66 483.902 1568.51 485.726 1565.94C511.067 1530.2 537.583 1494.91 561.749 1458.74C605.559 1393.15 649.019 1327.42 690.63 1261.05C724.918 1206.37 757.231 1150.93 788.82 1095.33C822.633 1035.84 855.022 975.898 887.211 915.899C907.379 878.346 926.022 840.34 945.416 802.56C946.19 801.051 947.415 799.693 948.44 798.26C949.239 798.486 950.064 798.712 950.864 798.939C874.89 1059.02 787.771 1316.84 672.786 1569.59C675.81 1569.59 677.934 1569.59 680.058 1569.59C736.713 1569.59 793.394 1569.59 850.049 1569.59C859.895 1569.59 859.87 1569.59 860.92 1562.4C861.17 1560.78 861.62 1559.17 861.87 1557.57C864.269 1541.65 866.693 1525.75 869.017 1509.83C871.366 1493.78 873.666 1477.73 875.965 1461.66C877.939 1447.76 879.888 1433.86 881.813 1419.94C883.862 1405.23 885.911 1390.51 887.861 1375.8C889.835 1360.94 891.659 1346.08 893.584 1331.21C895.283 1317.97 897.057 1304.73 898.732 1291.49C900.331 1278.8 901.831 1266.08 903.405 1253.37C905.08 1239.85 906.829 1226.34 908.454 1212.82C910.103 1199.16 911.627 1185.49 913.202 1171.81C914.876 1157.48 916.576 1143.14 918.2 1128.81C919.425 1118.11 920.549 1107.42 921.749 1096.74C923.448 1081.6 925.198 1066.43 926.847 1051.29C928.072 1040.07 929.196 1028.82 930.396 1017.58C931.72 1005.13 933.12 992.685 934.419 980.236C935.644 968.448 936.769 956.678 937.968 944.89C939.293 932.177 940.692 919.445 941.992 906.733C942.891 897.924 943.591 889.116 944.491 880.308C945.766 867.727 947.19 855.146 948.465 842.547C949.714 830.211 950.814 817.876 952.088 805.559C952.313 803.409 953.063 801.278 953.563 799.146C954.038 799.146 954.512 799.146 955.012 799.127C955.362 800.052 955.912 800.976 956.012 801.919C957.212 812.745 958.386 823.572 959.486 834.398C960.885 847.941 962.235 861.465 963.584 875.007C964.784 887.06 965.859 899.113 967.083 911.165C968.757 927.82 970.532 944.475 972.256 961.129C973.081 969.259 973.831 977.369 974.705 985.499C976.005 997.683 977.429 1009.85 978.754 1022.01C979.979 1033.39 981.103 1044.76 982.353 1056.14C984.002 1071.3 985.752 1086.45 987.426 1101.61C988.626 1112.3 989.75 1123 991 1133.68C992.649 1147.88 994.399 1162.06 996.073 1176.26C997.647 1189.79 999.122 1203.31 1000.72 1216.84C1002.37 1230.62 1004.15 1244.41 1005.84 1258.2C1007.04 1268.06 1008.14 1277.95 1009.39 1287.81C1011.04 1300.79 1012.79 1313.75 1014.49 1326.7C1016.14 1339.27 1017.79 1351.83 1019.46 1364.39C1021.39 1378.71 1023.34 1393.02 1025.29 1407.34C1026.86 1418.96 1028.34 1430.58 1029.96 1442.18C1031.96 1456.34 1034.06 1470.51 1036.16 1484.67C1038.13 1498.02 1040.13 1511.38 1042.13 1524.73C1044.11 1537.95 1046.33 1551.16 1047.93 1564.4C1048.4 1568.47 1050.23 1569.66 1055.53 1569.64C1113.81 1569.53 1172.11 1569.57 1230.39 1569.57C1232.07 1569.57 1233.77 1569.42 1235.81 1569.32C1235.26 1567.89 1234.99 1566.96 1234.59 1566.1C1229.79 1555.42 1224.94 1544.74 1220.17 1534.05C1181.33 1447.23 1145.55 1359.71 1113.26 1271.38C1091.26 1211.27 1069.4 1151.1 1049.4 1090.6C1023.31 1011.64 999.072 932.347 974.181 853.185C968.858 836.266 964.134 819.253 959.236 802.258C958.886 801.014 959.186 799.637 959.186 798.335C959.786 798.297 960.385 798.26 960.985 798.241C961.86 799.674 962.835 801.089 963.609 802.56C985.402 845.036 1006.44 887.739 1029.16 929.951C1062.87 992.553 1096.59 1055.19 1132.48 1117.1C1171.56 1184.49 1212.5 1251.28 1253.88 1317.88C1279.45 1359.01 1306.76 1399.53 1334.38 1439.89C1363.15 1481.95 1393.26 1523.49 1422.62 1565.32C1424.87 1568.53 1427.45 1569.68 1432.3 1569.68C1490.78 1569.55 1549.23 1569.6 1607.71 1569.6C1609.46 1569.6 1611.21 1569.6 1613.71 1569.6C1612.63 1568.32 1612.03 1567.53 1611.33 1566.79C1596.11 1550.93 1580.59 1535.22 1565.67 1519.17C1515.07 1464.7 1463.96 1410.47 1414.38 1355.47C1371.69 1308.13 1330.16 1260.14 1289.27 1211.89C1246.24 1161.12 1203.65 1110.12 1162.56 1058.44C1112.93 996.042 1064.92 932.894 1016.54 869.934C999.097 847.224 982.628 824.081 965.759 801.127C964.784 799.787 964.284 798.241 963.584 796.788C964.159 796.562 964.734 796.336 965.309 796.11C966.683 797.241 968.208 798.316 969.432 799.542C1010.47 840.095 1051.15 880.873 1092.59 921.2C1140.57 967.863 1188.58 1014.51 1237.71 1060.47C1310.29 1128.38 1383.69 1195.77 1457.06 1263.18C1489.35 1292.85 1522.21 1322.12 1555.13 1351.39C1591.99 1384.19 1629 1416.9 1666.26 1449.44C1710.95 1488.46 1755.98 1527.28 1800.79 1566.23C1803.64 1568.7 1806.69 1569.68 1811.06 1569.66C1869.72 1569.57 1928.37 1569.59 1987.03 1569.62C1989.35 1569.62 1991.68 1569.87 1993.97 1570C1993.97 1569.74 1993.97 1569.45 1993.97 1569.19C1991.95 1567.85 1989.8 1566.6 1987.9 1565.17C1805.29 1427.44 1622.7 1289.72 1440.09 1151.97C1343.25 1078.92 1246.39 1005.87 1149.57 932.799C1106.36 900.188 1063.2 867.538 1020.04 834.889C1003.75 822.553 987.426 810.237 971.157 797.882C969.807 796.864 968.858 795.544 967.708 794.374C968.083 794.073 968.483 793.789 968.857 793.488C970.482 794.186 972.206 794.751 973.681 795.581C1018.32 821.195 1063.15 846.602 1107.48 872.537C1171.19 909.807 1234.84 947.153 1297.89 985.046C1366.02 1025.99 1433.7 1067.38 1501.12 1109C1556.4 1143.12 1611.13 1177.74 1665.89 1212.35C1705.03 1237.07 1743.91 1262.03 1782.67 1287.08C1826.91 1315.67 1870.97 1344.45 1914.98 1373.25C1941.42 1390.55 1967.63 1408.04 1993.95 1425.43C1993.95 1377.78 1993.95 1330.14 1993.95 1282.49C1991.53 1281.36 1989 1280.34 1986.68 1279.1C1931.32 1249.32 1876.49 1218.97 1820.56 1189.83C1749.49 1152.8 1677.84 1116.38 1605.84 1080.37C1489.03 1021.96 1370.07 966.128 1249.43 912.335C1199.78 890.191 1149.84 868.368 1099.76 846.753C1058.45 828.929 1016.74 811.614 975.255 794.035C973.456 793.28 971.956 792.111 970.332 791.13C970.607 790.791 970.882 790.432 971.157 790.093C972.981 790.432 974.905 790.621 976.655 791.13C1021.76 804.163 1066.97 817.008 1111.91 830.343C1219.42 862.257 1326.46 895.095 1431.85 930.838C1510.27 957.433 1588.64 984.141 1666.11 1012.24C1739.84 1038.99 1812.56 1067.34 1885.39 1095.48C1921.98 1109.61 1957.81 1124.81 1994 1139.54Z" fill="#F19D00"/>
</svg>
