<svg width="76" height="76" viewBox="0 0 76 76" fill="none" xmlns="http://www.w3.org/2000/svg">
<path d="M53.305 23.1C53.32 23.1 53.34 23.1 53.36 23.1C53.8825 23.1 54.3675 23.2625 54.765 23.5425L54.7575 23.5375C55.0475 23.79 55.2425 24.145 55.29 24.545V24.5525C55.34 24.8575 55.3675 25.2075 55.3675 25.565C55.3675 25.7275 55.3625 25.8875 55.35 26.0475V26.025C54.7875 31.9475 52.3475 46.31 51.1075 52.94C50.5825 55.7475 49.55 56.6875 48.55 56.7775C46.3775 56.98 44.7275 55.3425 42.6225 53.9625C39.3275 51.8 37.465 50.455 34.2675 48.3475C30.57 45.915 32.9675 44.5725 35.0725 42.3875C35.625 41.8125 45.2025 33.1 45.39 32.31C45.4 32.2625 45.405 32.21 45.405 32.155C45.405 31.96 45.3325 31.7825 45.215 31.6475C45.085 31.5625 44.9225 31.515 44.7525 31.515C44.64 31.515 44.5325 31.5375 44.4325 31.575L44.4375 31.5725C44.1075 31.6475 38.8441 35.1258 28.6475 42.0075C27.535 42.885 26.13 43.44 24.6 43.505H24.585C22.4175 43.2425 20.45 42.76 18.5825 42.0725L18.7675 42.1325C16.4225 41.3675 14.56 40.965 14.72 39.67C14.805 38.9967 15.7333 38.3075 17.505 37.6025C28.4183 32.8475 35.6958 29.7133 39.3375 28.2C43.355 26.0675 48.0125 24.3125 52.91 23.175L53.3025 23.0975L53.305 23.1ZM37.825 0.5625C17.07 0.6125 0.262451 17.45 0.262451 38.2125C0.262451 59.005 17.1175 75.8625 37.9125 75.8625C58.7075 75.8625 75.5625 59.0075 75.5625 38.2125C75.5625 17.45 58.755 0.6125 38.005 0.5625H38C37.9416 0.5625 37.8833 0.5625 37.825 0.5625Z" fill="black"/>
</svg>
